<svg xmlns="http://www.w3.org/2000/svg" width="1342.53" height="508.88" viewBox="0 0 1342.53 508.88"><defs><style>.a{fill:#ec00ff;}</style></defs><title>palmtrees</title><path class="a" d="M125.74,387.67c-1.92-3.84-5-7-8.18-9.84-11.32-10.16-24.7-17.69-38-25.14,6.23,10,13,20.56,23.6,25.78a73.86,73.86,0,0,1-21.12-12.23c1.78,3.69,4.72,6.7,7.68,9.55a235,235,0,0,0,25.91,21.64c-9.26-1.41-19-3.28-26-9.51a161.61,161.61,0,0,0,28,19.28c-3.2,1.21-6.79.48-10.07-.49A71.76,71.76,0,0,1,91.94,400a130.92,130.92,0,0,0,20.25,15.53,31.53,31.53,0,0,1-16.4-5.21A120.11,120.11,0,0,0,119,426.32a10.69,10.69,0,0,1-9.15-1q15.33,17.16,28.94,35.78l1.19,1.26c-4.57-19.07-9.16-38.23-10.82-57.77C128.62,398.83,128.33,392.85,125.74,387.67Z" transform="translate(-6.11 -293.58)"/><path class="a" d="M134.45,399.13c-.61-1-1.24-1.91-1.93-2.83C133.17,397.24,133.81,398.19,134.45,399.13Z" transform="translate(-6.11 -293.58)"/><path class="a" d="M162.5,393.79a49.72,49.72,0,0,1-5.2,10.26c1.1-11.75,2.07-24.2-3.14-34.79q-.07,6.9-.13,13.8a116.8,116.8,0,0,0-23.36-32.88,51.49,51.49,0,0,1,10.88,33.18c-4.51-7.69-10.33-15.53-18.92-17.91a96.07,96.07,0,0,1,20.27,34,37.41,37.41,0,0,0-10.61-12.92,74.69,74.69,0,0,1,12.45,27.73l-10.29-15.12c7.51,11.78,10,26.19,12.3,40.07a81.37,81.37,0,0,0-7.46-13.53A73,73,0,0,1,144,460.89l1.59-.73A58,58,0,0,0,162,421.64a52.66,52.66,0,0,1-8.61,11.82,122.93,122.93,0,0,0,9-29.33C163,400.71,163.46,397.14,162.5,393.79Z" transform="translate(-6.11 -293.58)"/><path class="a" d="M245.09,493.61c4.08,6.83,9,13.39,15.61,17.81-4.95-9.06-8.2-18.94-12.35-28.39s-9.41-18.74-17.41-25.26a70.14,70.14,0,0,0-13.26-8.1,62.33,62.33,0,0,0-10.37-4.35c-10.47-3.05-21.89-1.13-31.92,3.17s-18.7,10.64-27.38,17a60.14,60.14,0,0,1,22.3,5.66l-5.76-8.54,18.52,13.7q-3.21-7.93-5.94-16.05c5.19,6.87,10.47,13.84,17.36,19a73.69,73.69,0,0,1-2.16-22.43c3.43,11,7.71,21.89,14.3,31.35.06-9.05.2-18.42,3.92-26.67a222.31,222.31,0,0,0,11.35,33.18,73.36,73.36,0,0,1-1.13-31.14c5.23,13.32,11,27.4,22.71,35.67a66.7,66.7,0,0,1-10.18-26.42C237.64,479.52,241,486.77,245.09,493.61Z" transform="translate(-6.11 -293.58)"/><path class="a" d="M195.12,410.87l10.29-18.61a43.33,43.33,0,0,0-14.15,12.4,100.07,100.07,0,0,1,4.84-18.9,66.81,66.81,0,0,0-14.23,26.84,89.22,89.22,0,0,0-1.32-23.3Q178,401,175.34,412.78c-.85,3.84-1.74,7.77-3.82,11.11a84.68,84.68,0,0,0-.86-16.3,90.28,90.28,0,0,1-8.9,39.4l-1.1,2.16a87.47,87.47,0,0,1,24.61-10.06,46.84,46.84,0,0,0-6.36-.58,137.47,137.47,0,0,1,24.53-12.72,116,116,0,0,0-19.72-.35c5.64-6.59,13.53-10.74,21.22-14.74A30,30,0,0,1,195.12,410.87Z" transform="translate(-6.11 -293.58)"/><path class="a" d="M142.79,470.64a35.11,35.11,0,0,1,9.09,20.64l2.85-8.56,8.5,22.26c1.25,3.26,2.54,6.59,4.86,9.19l1.32-15.3q8.1,15.21,16.19,30.42a170.53,170.53,0,0,1-.64-18.5l12.48,29.86q.44-10,.85-20a235.72,235.72,0,0,1,8.2,34c.78,4.75,1.53,9.81,4.65,13.48a105.3,105.3,0,0,1,1.09-34.79,170.82,170.82,0,0,0,14.66,39c-3.64-15.08-2-31.32-7.6-45.77-6.25-16.1-20.59-27.62-35.42-36.47" transform="translate(-6.11 -293.58)"/><path class="a" d="M101.13,428.8c-5.95-5.22-12.47-10.16-20.11-12.24-5.8-1.57-11.93-1.4-17.93-1A75,75,0,0,0,51,417.26c-11.39,2.77-21.39,10-28.82,19.06s-12.43,19.91-16,31.07c6.33-16.32,21.48-27.42,36.7-36.06L30,452.17a78,78,0,0,1,31.91-21.79c-5.57,2.55-8.77,9.1-11.21,15a55.82,55.82,0,0,1,21.61-14.54q-3.06,9.45-6.61,18.76a130.92,130.92,0,0,1,16.11-17,42.14,42.14,0,0,1-8.08,21.94,99.09,99.09,0,0,1,25.39-12.68,48,48,0,0,1-8.71,15L106.71,450a27.33,27.33,0,0,1-8.26,12.33A108.54,108.54,0,0,0,116.84,455a44.46,44.46,0,0,1-9.39,12.4,46,46,0,0,1,27.12-.2c0-1.35,1.35-1.31-.5-4S113.08,439.26,101.13,428.8Z" transform="translate(-6.11 -293.58)"/><path class="a" d="M134.72,474.93a255.32,255.32,0,0,0-59,6.64c-4.63,1.08-9.76,2.69-11.94,6.91A52.73,52.73,0,0,1,91,483a115.1,115.1,0,0,0-42.83,15.13,92.09,92.09,0,0,1,24.74-1.62C59.93,501,50.19,511.65,38.61,518.83a68.15,68.15,0,0,1,26-5.44,333.72,333.72,0,0,0-39.08,33.83c11.76-7,23.85-14.06,37.3-16.51a209.76,209.76,0,0,0-14.22,38.6q10.31-17,22.05-33a92.91,92.91,0,0,1-4.09,23.78q11.1-24.27,19.75-49.55a103.91,103.91,0,0,1,1.41,30.33,270.88,270.88,0,0,0,17.48-49.35,71.31,71.31,0,0,1,1.26,29.76,117.84,117.84,0,0,0,15.16-32.16,26.65,26.65,0,0,1,.15,10.82c6.49-6.62,10.87-15.55,12.94-24.59Z" transform="translate(-6.11 -293.58)"/><path class="a" d="M160.39,517.16c.38.83.78,1.66,1.15,2.49A12.77,12.77,0,0,0,160.39,517.16Z" transform="translate(-6.11 -293.58)"/><path class="a" d="M167.79,545.26a171.67,171.67,0,0,0-14-34,14.06,14.06,0,0,1,6.58,5.87,275.59,275.59,0,0,0-22.58-40.23s-3.4,9.77-4.64,13.16-10.84,21.25-15.34,38.16a59.45,59.45,0,0,1,15-21,170.74,170.74,0,0,0-14.29,55.35,82.91,82.91,0,0,1,11-22.26,228.73,228.73,0,0,0-2.78,51.21,59,59,0,0,1,10.09-27.86q3.44,18.75,6.88,37.52A63.84,63.84,0,0,1,147.37,579a228,228,0,0,1,8.75,26.2q.81-11.83.54-23.71a43.67,43.67,0,0,1,7.2,12.29q-1.08-15.06-2.18-30.14a60.5,60.5,0,0,1,7,11.74,85.7,85.7,0,0,0-12.8-41.72A32,32,0,0,1,167.79,545.26Z" transform="translate(-6.11 -293.58)"/><path class="a" d="M112.25,719.35c-14.13-58.69-10.9-118.3-.63-177.79.82-4.73,2.3-11,1.35-15.75l-3.16-1.09c-9.71,18-14.94,38-18.38,58.18A367.48,367.48,0,0,0,116,789.05a4.41,4.41,0,0,0,1.71,2.34c1.14.62,2.55.15,3.75-.33l13.61-5.42" transform="translate(-6.11 -293.58)"/><path class="a" d="M327,524a22.32,22.32,0,0,1,3.66-7.43c5.59-8.11,12.87-14.88,20.08-21.58-2.4,7.26-5.06,14.91-10.94,19.8a47.54,47.54,0,0,0,11.43-10.9,22.5,22.5,0,0,1-3.38,7.18,150.62,150.62,0,0,1-13,17.54c5.62-2.28,11.48-4.94,14.93-9.92a104.49,104.49,0,0,1-14.71,16.38c2.19.27,4.34-.73,6.26-1.84a46.37,46.37,0,0,0,8.84-6.62,85.45,85.45,0,0,1-10.39,12.84,20.39,20.39,0,0,0,9.53-5.77,77.4,77.4,0,0,1-12.14,13.61,6.87,6.87,0,0,0,5.6-2q-7,13.13-12.79,26.91l-.56,1c0-12.69,0-25.44-1.94-38C326.92,531.47,326.2,527.66,327,524Z" transform="translate(-6.11 -293.58)"/><path class="a" d="M323.3,532.54c.24-.69.49-1.39.78-2.07Z" transform="translate(-6.11 -293.58)"/><path class="a" d="M304.83,533.43a32.34,32.34,0,0,0,4.83,5.67c-2.47-7.23-5-14.92-3.29-22.37q1.1,4.34,2.17,8.66a75.58,75.58,0,0,1,9.72-24.23,33.32,33.32,0,0,0-1.82,22.53c1.68-5.52,4.15-11.34,9.19-14.14A62.28,62.28,0,0,0,318,534a24.16,24.16,0,0,1,4.72-9.74,48.33,48.33,0,0,0-3.64,19.33l4.19-11.07c-2.94,8.55-2.34,18-1.67,27.08a52.71,52.71,0,0,1,2.64-9.64,47.22,47.22,0,0,0,2.4,22.87l-1.12-.22a37.47,37.47,0,0,1-16.2-21.74,34.4,34.4,0,0,0,7.21,6.13,80,80,0,0,1-10.11-17.09A15.23,15.23,0,0,1,304.83,533.43Z" transform="translate(-6.11 -293.58)"/><path class="a" d="M268,608.77c-1.53,4.92-3.63,9.79-7.13,13.57,1.75-6.45,2.3-13.16,3.48-19.74s3.08-13.21,7.12-18.53a46,46,0,0,1,7.12-7.11,40.43,40.43,0,0,1,5.87-4.31c6.13-3.51,13.61-4,20.57-2.84s13.38,3.87,19.81,6.57a38.92,38.92,0,0,0-13.17,6.93q1.16-3.12,2.33-6.24l-9.58,11.42q.81-5.47,1.3-11c-2.22,5.12-4.49,10.3-8,14.6a48,48,0,0,0-2-14.44c-.49,7.45-1.54,14.94-4.25,21.9-1.41-5.69-2.91-11.56-6.51-16.19a145.25,145.25,0,0,1-2.11,22.6,47.65,47.65,0,0,0-4-19.77c-1.28,9.17-2.8,18.92-8.89,25.89a43.17,43.17,0,0,0,2.4-18.17C270.54,598.77,269.51,603.84,268,608.77Z" transform="translate(-6.11 -293.58)"/><path class="a" d="M286.89,549.13Q282.24,544,277.6,539a28,28,0,0,1,10.78,5.66,64,64,0,0,0-5.91-11.16,43.09,43.09,0,0,1,13,14.74,58.35,58.35,0,0,1-2.7-14.87l6.84,14a22.59,22.59,0,0,0,4.09,6.41,54.67,54.67,0,0,1-1.93-10.39,58.46,58.46,0,0,0,11.57,23.45l1,1.19a56.38,56.38,0,0,0-17-2.6,30,30,0,0,1,3.91-1.33,88.57,88.57,0,0,0-17.37-4.29,75.17,75.17,0,0,1,12.37-3.2c-4.55-3.3-10.15-4.72-15.59-6.07A19.43,19.43,0,0,0,286.89,549.13Z" transform="translate(-6.11 -293.58)"/><path class="a" d="M328.88,578.81a22.8,22.8,0,0,0-2.59,14.37l-3.09-5-2,15.3a18.83,18.83,0,0,1-1.66,6.52l-3.15-9.43-5.58,21.6a111.51,111.51,0,0,0-2.4-11.74l-3.33,20.68q-1.78-6.24-3.58-12.47a153.86,153.86,0,0,0,0,22.62c.23,3.11.52,6.4-.88,9.19a68.13,68.13,0,0,0-6-21.73,110.41,110.41,0,0,1-3.31,26.78c0-10-3.49-20-2.15-30,1.49-11.08,8.77-20.5,16.76-28.31" transform="translate(-6.11 -293.58)"/><path class="a" d="M348.76,546.16c3-4.18,6.31-8.28,10.81-10.74a34.56,34.56,0,0,1,11.13-3.33,48.73,48.73,0,0,1,7.89-.79c7.59,0,15,3.05,21,7.63s10.84,10.65,14.79,17.13c-6.45-9.31-17.67-14-28.56-17.14l11.21,11.18a50.5,50.5,0,0,0-23.39-8.88c3.9.76,6.9,4.4,9.34,7.74a36.1,36.1,0,0,0-15.81-5.88q3.36,5.49,7,10.8a85.24,85.24,0,0,0-12.72-8.26,27.49,27.49,0,0,0,8.41,12.59,64,64,0,0,0-17.9-4.14,31.1,31.1,0,0,0,7.75,8.1l-11.27-1.8a17.66,17.66,0,0,0,7.07,6.51A69.6,69.6,0,0,1,342.85,565a28.55,28.55,0,0,0,7.79,6.38,29.74,29.74,0,0,0-17.1,4c-.22-.85-1.05-.62-.29-2.61A244.39,244.39,0,0,1,348.76,546.16Z" transform="translate(-6.11 -293.58)"/><path class="a" d="M334.62,580.29a165.09,165.09,0,0,1,38.14-4.76c3.08,0,6.55.21,8.56,2.54a34,34,0,0,0-17.94.66,74.43,74.43,0,0,1,29.25,3,59.38,59.38,0,0,0-15.81,2.73c8.81.85,16.56,6.1,24.94,8.86a44.37,44.37,0,0,0-17.22.52,216.52,216.52,0,0,1,29.72,15.38c-8.46-2.6-17.14-5.24-26-4.74a135.14,135.14,0,0,1,14.79,22.14q-9-9.14-18.88-17.46a60.56,60.56,0,0,0,6.17,14.35Q379.72,610,370.44,595.35a67.28,67.28,0,0,0,3.71,19.3,175.58,175.58,0,0,1-18.48-28.41,46.07,46.07,0,0,0,3.72,18.92A76.12,76.12,0,0,1,345,587.22a17.16,17.16,0,0,0,1.55,6.83,33.61,33.61,0,0,1-11.87-13.52Z" transform="translate(-6.11 -293.58)"/><path class="a" d="M324.85,610.75c-.11.59-.23,1.17-.34,1.75A8.73,8.73,0,0,1,324.85,610.75Z" transform="translate(-6.11 -293.58)"/><path class="a" d="M324.45,629.56a112,112,0,0,1,3.66-23.5,9.18,9.18,0,0,0-3.26,4.69A180.11,180.11,0,0,1,333,582s3.62,5.63,4.92,7.57,10,11.74,15.44,21.7a38.67,38.67,0,0,0-12.66-11A110.38,110.38,0,0,1,358.05,633a53.85,53.85,0,0,0-10.28-12.34,148.58,148.58,0,0,1,9.51,31.81,38.13,38.13,0,0,0-10.57-16l1.35,24.66a41.62,41.62,0,0,0-5.64-13.43,147.74,147.74,0,0,0-1.54,17.82q-2.31-7.34-3.93-14.84a28.15,28.15,0,0,0-2.67,8.82q-1.61-9.65-3.2-19.3a39.2,39.2,0,0,0-2.65,8.46,55.56,55.56,0,0,1,1.74-28.2A20.8,20.8,0,0,0,324.45,629.56Z" transform="translate(-6.11 -293.58)"/><path class="a" d="M385.79,730.72c0-39.08-11.06-76.11-26.54-112-1.23-2.86-3.12-6.61-3.24-9.71l1.83-1.17c8.83,9.84,15.16,21.68,20.38,33.83A238,238,0,0,1,394,775.16a2.86,2.86,0,0,1-.73,1.73,2.94,2.94,0,0,1-2.41.36l-9.38-1.35" transform="translate(-6.11 -293.58)"/><path class="a" d="M536.66,336.45c-1.83-4.44-5-8.2-8.34-11.66C516.51,312.51,502.17,303,488,293.58c6.15,11.73,12.84,24.05,24.26,30.75a82.46,82.46,0,0,1-22.59-15.4c1.68,4.28,4.72,7.87,7.79,11.3a264.73,264.73,0,0,0,27.18,26.3c-10.23-2.33-21-5.21-28.29-12.75a181.52,181.52,0,0,0,29.74,23.84c-3.67,1.08-7.62,0-11.21-1.38a80.67,80.67,0,0,1-17-8.83,146.15,146.15,0,0,0,21.36,19,35.43,35.43,0,0,1-17.9-7.18,133.55,133.55,0,0,0,24.56,19.83,11.94,11.94,0,0,1-10.14-1.85q15.74,20.43,29.41,42.35l1.23,1.52c-3.55-21.69-7.1-43.47-7.36-65.45C539,349.16,539.13,342.46,536.66,336.45Z" transform="translate(-6.11 -293.58)"/><path class="a" d="M545.46,350c-.61-1.13-1.24-2.24-1.93-3.33Z" transform="translate(-6.11 -293.58)"/><path class="a" d="M577.24,346.3a55,55,0,0,1-6.66,11c2.19-13,4.3-26.88-.66-39.13q-.63,7.69-1.27,15.41A130.81,130.81,0,0,0,545.24,295a57.67,57.67,0,0,1,9.44,38c-4.42-9-10.28-18.2-19.67-21.57A107.72,107.72,0,0,1,554.87,351a41.75,41.75,0,0,0-10.8-15.32,83.66,83.66,0,0,1,11.65,32L545.46,350c7.42,13.77,9,30.08,10.46,45.78A91,91,0,0,0,548.69,380,81.7,81.7,0,0,1,551,419.76l1.85-.68a64.91,64.91,0,0,0,21.56-41.69,59.25,59.25,0,0,1-10.6,12.5,137.75,137.75,0,0,0,12.46-32C577.25,354.07,578,350.12,577.24,346.3Z" transform="translate(-6.11 -293.58)"/><path class="a" d="M661.36,464.61c4,8,8.95,15.7,16,21.18-4.79-10.53-7.62-21.83-11.48-32.73s-9-21.71-17.38-29.66a79.74,79.74,0,0,0-14.16-10.14,69.78,69.78,0,0,0-11.24-5.7c-11.45-4.27-24.37-3.06-35.93.92-11.41,3.92-21.76,10.37-32,16.79a67.27,67.27,0,0,1,24.46,8.14l-5.74-10,19.58,16.82q-2.94-9.14-5.33-18.42c5.24,8.11,10.57,16.33,17.85,22.67a82.12,82.12,0,0,1-.58-25.23c2.93,12.58,6.82,25.09,13.41,36.2.82-10.11,1.73-20.57,6.57-29.49a249.13,249.13,0,0,0,10,38,82.26,82.26,0,0,1,1.29-34.88c4.75,15.31,10.09,31.52,22.46,41.71a74.77,74.77,0,0,1-9.21-30.35C654.18,448.26,657.37,456.63,661.36,464.61Z" transform="translate(-6.11 -293.58)"/><path class="a" d="M612.3,368.06l13-20a48.88,48.88,0,0,0-16.84,12.7,112,112,0,0,1,7-20.72,74.72,74.72,0,0,0-18.1,28.83,100.42,100.42,0,0,0,.43-26.15q-3.87,12.9-7.75,25.81c-1.26,4.23-2.58,8.54-5.18,12.11a93.17,93.17,0,0,0,.37-18.29,101.23,101.23,0,0,1-13.16,43.31L570.65,408A98.17,98.17,0,0,1,599,398.79a52.62,52.62,0,0,0-7.05-1.17,154.1,154.1,0,0,1,28.45-12.21,129.89,129.89,0,0,0-22-2c6.84-6.9,16-10.9,24.92-14.74A33.49,33.49,0,0,1,612.3,368.06Z" transform="translate(-6.11 -293.58)"/><path class="a" d="M548.92,430.57a39.32,39.32,0,0,1,8.47,23.8q1.93-4.67,3.88-9.32,3.84,12.78,7.69,25.57c1.12,3.74,2.29,7.57,4.67,10.67l2.73-17L592,499.61a191.36,191.36,0,0,1,.8-20.73l11.5,34.4q1.31-11.16,2.6-22.32a265.77,265.77,0,0,1,6.37,38.63c.48,5.38.91,11.09,4.1,15.45a117.86,117.86,0,0,1,4.07-38.79,191.34,191.34,0,0,0,13.17,44.82c-2.82-17.14.35-35.16-4.74-51.77-5.66-18.51-20.75-32.55-36.59-43.65" transform="translate(-6.11 -293.58)"/><path class="a" d="M505.79,380.4c-6.23-6.32-13.1-12.37-21.47-15.32-6.36-2.24-13.22-2.55-20-2.55a82.43,82.43,0,0,0-13.69.87c-13,2.16-24.73,9.42-33.77,18.94s-15.51,21.24-20.45,33.41c8.4-17.72,26.24-28.89,44-37.3l-16,22.25A87.21,87.21,0,0,1,461.86,379c-6.44,2.39-10.55,9.45-13.77,15.83a62.68,62.68,0,0,1,25.35-14.48q-4.2,10.32-8.92,20.42A147.2,147.2,0,0,1,483.92,383a47.4,47.4,0,0,1-10.83,23.87,110.66,110.66,0,0,1,29.41-12.1,53.65,53.65,0,0,1-11,16l18.75-6.24a30.72,30.72,0,0,1-10.24,13.1A122.63,122.63,0,0,0,521.2,411a50,50,0,0,1-11.51,13.09,51.41,51.41,0,0,1,30.32,2c.15-1.52,1.62-1.36-.23-4.54S518.29,393.07,505.79,380.4Z" transform="translate(-6.11 -293.58)"/><path class="a" d="M539.55,434.7a286.78,286.78,0,0,0-66.49,2.59c-5.26.83-11.12,2.21-13.91,6.75A59,59,0,0,1,490,440.12a129.25,129.25,0,0,0-49.11,13.4,103.78,103.78,0,0,1,27.78.22c-14.8,3.92-26.57,15.07-40.1,22.15a76.36,76.36,0,0,1,29.54-3.95,374,374,0,0,0-46.43,34.62c13.71-6.83,27.8-13.77,43-15.4a234.28,234.28,0,0,0-19.05,42Q448.54,515,463,498a104.13,104.13,0,0,1-6.52,26.24Q470.86,498,482.6,470.49a116.8,116.8,0,0,1-.91,34,303.56,303.56,0,0,0,23.58-53.72,80,80,0,0,1-1,33.36,131.25,131.25,0,0,0,19.57-34.69,29.76,29.76,0,0,1-.71,12.1c7.8-6.86,13.42-16.49,16.47-26.42Z" transform="translate(-6.11 -293.58)"/><path class="a" d="M564.79,484c.35,1,.72,1.92,1.07,2.89A15.41,15.41,0,0,0,564.79,484Z" transform="translate(-6.11 -293.58)"/><path class="a" d="M570.75,516a193,193,0,0,0-12.84-39.11,15.86,15.86,0,0,1,6.88,7.1,309.13,309.13,0,0,0-21.95-46.79s-4.59,10.64-6.26,14.32-13.85,22.86-20.27,41.39a66.57,66.57,0,0,1,18.53-22.27,191.4,191.4,0,0,0-20.5,60.69,92.93,92.93,0,0,1,14.09-24,256.49,256.49,0,0,0-7.3,57A66.1,66.1,0,0,1,534.69,534l4.62,42.5A71.57,71.57,0,0,1,545.17,552a257.82,257.82,0,0,1,7.64,30q1.88-13.15,2.54-26.45a49,49,0,0,1,7,14.32l0-33.86a67.67,67.67,0,0,1,6.9,13.7,96.09,96.09,0,0,0-10.88-47.67A35.94,35.94,0,0,1,570.75,516Z" transform="translate(-6.11 -293.58)"/><path class="a" d="M494.43,706c-11-66.74-2.5-133.1,13.85-198.74,1.3-5.22,3.48-12.15,2.8-17.49l-3.44-1.48c-12.33,19.29-19.81,41.29-25.31,63.52A411.8,411.8,0,0,0,493,784.21a5.05,5.05,0,0,0,1.72,2.76c1.23.78,2.83.36,4.22-.07L514.55,782" transform="translate(-6.11 -293.58)"/><path class="a" d="M813.11,448.94a29.42,29.42,0,0,0-3.62-10.38c-6-11.58-14.55-21.67-23-31.66,2,10,4.27,20.46,11.23,27.85a63.32,63.32,0,0,1-13.31-16.2c.32,3.51,1.78,6.81,3.3,10a202.28,202.28,0,0,0,14.34,25.21c-7-3.92-14.32-8.36-18.07-15.48a138.91,138.91,0,0,0,16.75,24c-2.94,0-5.61-1.66-8-3.43a61.56,61.56,0,0,1-10.57-10.15,111.73,111.73,0,0,0,11.62,18.59,27.16,27.16,0,0,1-11.63-9.13A102.5,102.5,0,0,0,796,478a9.15,9.15,0,0,1-7.06-3.55q7.17,18.44,12.52,37.51l.57,1.37c2.07-16.72,4.14-33.52,8.69-49.74C812.07,458.79,813.64,453.89,813.11,448.94Z" transform="translate(-6.11 -293.58)"/><path class="a" d="M816.67,460.78c-.2-.95-.43-1.91-.7-2.86Z" transform="translate(-6.11 -293.58)"/><path class="a" d="M840.85,464.93a42.26,42.26,0,0,1-7.27,6.68c4.42-9.12,8.95-18.85,7.94-28.94l-4.26,11.07a100.17,100.17,0,0,0-8.9-33.48,44.15,44.15,0,0,1-1.23,30c-1.32-7.54-3.64-15.6-9.83-20.1a82.43,82.43,0,0,1,6.07,33.46,31.88,31.88,0,0,0-4.65-13.6A64,64,0,0,1,820.4,476q-1.86-7.62-3.73-15.26c2.5,11.74.18,24.09-2.16,36a70,70,0,0,0-1.93-13.13,62.58,62.58,0,0,1-6.84,29.74l1.51-.11a49.76,49.76,0,0,0,24.84-26,45.42,45.42,0,0,1-10.48,6.91,105.5,105.5,0,0,0,16.06-20.89C839.18,470.65,840.61,467.91,840.85,464.93Z" transform="translate(-6.11 -293.58)"/><path class="a" d="M877.27,570.1c1.22,6.73,3.2,13.48,7.2,19-1.26-8.78-.9-17.7-1.39-26.56s-1.93-17.91-6.41-25.57a60.37,60.37,0,0,0-8.23-10.5,53.7,53.7,0,0,0-7-6.62c-7.51-5.61-17.28-7.5-26.64-7.06s-18.25,2.94-27.16,5.46a51.69,51.69,0,0,1,16.25,11.26l-2.07-8.6,10.78,16.59q-.18-7.35.05-14.7c2.11,7.09,4.26,14.29,8.25,20.53a63.26,63.26,0,0,1,5-18.7c-.55,9.9-.38,19.94,2.07,29.54,2.78-7.27,5.7-14.77,11.19-20.29a190.59,190.59,0,0,0-.86,30.12,63.16,63.16,0,0,1,8.46-25.4c.2,12.29.64,25.37,7.55,35.54a57.15,57.15,0,0,1-.24-24.32C875.51,556.52,876.05,563.37,877.27,570.1Z" transform="translate(-6.11 -293.58)"/><path class="a" d="M862,488.49l13.88-11.89a37.58,37.58,0,0,0-15.12,5.72,85.92,85.92,0,0,1,9.59-13.75,57.31,57.31,0,0,0-19.53,17.32,76.83,76.83,0,0,0,6-19.15l-11.26,17.33c-1.84,2.84-3.74,5.73-6.42,7.79a72.07,72.07,0,0,0,4.21-13.37,77.61,77.61,0,0,1-19,29l-1.53,1.4a75,75,0,0,1,22.83-.69,39.36,39.36,0,0,0-4.94-2.38A118.29,118.29,0,0,1,864.17,503a100.3,100.3,0,0,0-15.77-6.21c6.52-3.6,14.12-4.57,21.51-5.47A25.85,25.85,0,0,1,862,488.49Z" transform="translate(-6.11 -293.58)"/><path class="a" d="M801.86,520.84A30.18,30.18,0,0,1,803,540.18l4.86-6,.15,20.47c0,3,.06,6.07,1.14,8.86l5.67-11.91,3.87,29.34a145.85,145.85,0,0,1,5.06-15.08l1,27.79,6.72-15.86a204.65,204.65,0,0,1-3.63,29.8c-.81,4.06-1.72,8.35-.32,12.25a90.47,90.47,0,0,1,11.35-27.67,146.52,146.52,0,0,0,.05,35.82c1.61-13.23,7.82-25.8,7.66-39.12-.18-14.84-8.26-28.42-17.53-40" transform="translate(-6.11 -293.58)"/><path class="a" d="M780.93,474.63c-3.22-6-7-11.93-12.5-15.9-4.2-3-9.18-4.72-14.13-6.18a63.74,63.74,0,0,0-10.27-2.3c-10-1.21-20.22,1.6-28.93,6.66s-16,12.29-22.25,20.18c10-11.23,25.54-15.6,40.39-18L716.68,472a66.82,66.82,0,0,1,32.23-7.93c-5.25.37-9.8,4.68-13.54,8.68a48.18,48.18,0,0,1,21.78-5.2q-5.32,6.69-11,13.11a112.86,112.86,0,0,1,18.08-8.84,36.31,36.31,0,0,1-13.1,15.23,85,85,0,0,1,24.25-2.57A41.26,41.26,0,0,1,763.89,494l15.14-.56a23.51,23.51,0,0,1-10.36,7.44,93.84,93.84,0,0,0,17-.38,38.29,38.29,0,0,1-11.28,7.15,39.59,39.59,0,0,1,21.88,8c.43-1.08,1.48-.65.8-3.38S787.4,486.65,780.93,474.63Z" transform="translate(-6.11 -293.58)"/><path class="a" d="M794.07,521.86a219.78,219.78,0,0,0-49.48-12.42c-4.05-.52-8.66-.77-11.69,2a45.4,45.4,0,0,1,23.53,3.76,98.78,98.78,0,0,0-39-.71,79.07,79.07,0,0,1,20.39,6.14c-11.74-.3-22.8,5.37-34.28,7.66a58.49,58.49,0,0,1,22.59,3.46,287.34,287.34,0,0,0-41.62,15.47c11.56-2.07,23.42-4.14,35-2.06a179.46,179.46,0,0,0-23.06,26.78q13.41-10.57,27.69-20a80.26,80.26,0,0,1-10.44,17.91q16.23-16.2,30.8-33.93a89.34,89.34,0,0,1-8,24.83,233.4,233.4,0,0,0,28.92-34.45,61.37,61.37,0,0,1-7.95,24.32,100.92,100.92,0,0,0,21.87-21.31,22.82,22.82,0,0,1-3.13,8.75A44.61,44.61,0,0,0,794,522.17Z" transform="translate(-6.11 -293.58)"/><path class="a" d="M802,563.56c.05.79.12,1.57.17,2.36A12.44,12.44,0,0,0,802,563.56Z" transform="translate(-6.11 -293.58)"/><path class="a" d="M799.53,588.41a148.61,148.61,0,0,0-1-31.55,12.11,12.11,0,0,1,3.53,6.7A236.77,236.77,0,0,0,796,524.4s-5.67,6.84-7.69,9.19-15.12,13.84-23.83,26.09a51.1,51.1,0,0,1,18.43-12.39,146.68,146.68,0,0,0-28.16,40.24,71.33,71.33,0,0,1,15.54-14.6A196.41,196.41,0,0,0,752.6,613.3a50.66,50.66,0,0,1,16.5-19.39q-2.88,16.14-5.75,32.27a54.84,54.84,0,0,1,9.59-16.78,195.69,195.69,0,0,1-.84,23.72q4.21-9.29,7.57-18.92a37.79,37.79,0,0,1,2.1,12q3.65-12.45,7.31-24.91a51.75,51.75,0,0,1,2.13,11.57,73.75,73.75,0,0,0,2.26-37.43A27.6,27.6,0,0,1,799.53,588.41Z" transform="translate(-6.11 -293.58)"/><path class="a" d="M702.44,711.79c6.29-51.48,26.83-98.49,53-143.26,2.08-3.57,5.17-8.2,5.82-12.27l-2.21-1.83c-13.23,11.54-23.47,26.12-32.3,41.29A315.73,315.73,0,0,0,684.51,769a3.88,3.88,0,0,0,.67,2.4c.74.84,2,.89,3.13.86l12.58-.27" transform="translate(-6.11 -293.58)"/><path class="a" d="M978.14,431.28a29.62,29.62,0,0,0-6.64-8.83c-9.34-9.24-20.56-16.3-31.69-23.29,5,8.92,10.35,18.29,19.27,23.24A63.86,63.86,0,0,1,941.38,411c1.39,3.27,3.79,6,6.22,8.57A204.64,204.64,0,0,0,969,439.28c-7.93-1.61-16.27-3.63-22-9.3a140.41,140.41,0,0,0,23.36,17.81c-2.81.9-5.87.13-8.66-.85a62,62,0,0,1-13.23-6.49,112.06,112.06,0,0,0,16.81,14.25,27.22,27.22,0,0,1-13.93-5.19,102.84,102.84,0,0,0,19.3,14.82,9.23,9.23,0,0,1-7.85-1.24q12.51,15.45,23.46,32.09l1,1.14C984.09,479.67,981,463,980.33,446,980.15,441,980.16,435.86,978.14,431.28Z" transform="translate(-6.11 -293.58)"/><path class="a" d="M985.17,441.54c-.48-.86-1-1.7-1.54-2.53Z" transform="translate(-6.11 -293.58)"/><path class="a" d="M1009.59,438.11a42.38,42.38,0,0,1-4.92,8.63c1.44-10.09,2.81-20.79-1.24-30.14q-.34,5.94-.7,11.9A100.35,100.35,0,0,0,984,399.15a44.48,44.48,0,0,1,8,29.08c-3.57-6.82-8.26-13.83-15.57-16.25a82.8,82.8,0,0,1,16.05,30.18,32.29,32.29,0,0,0-8.6-11.6A64.56,64.56,0,0,1,993.41,455q-4.11-6.74-8.24-13.47c6,10.47,7.54,23,8.92,35.07a69.92,69.92,0,0,0-5.86-12,63,63,0,0,1,2.55,30.57l1.41-.56A50,50,0,0,0,1008,462.12a45.74,45.74,0,0,1-7.93,9.82,106.62,106.62,0,0,0,9-24.91C1009.75,444.1,1010.28,441,1009.59,438.11Z" transform="translate(-6.11 -293.58)"/><path class="a" d="M1076.63,527.69c3.23,6.07,7.19,11.93,12.72,16-3.89-8-6.28-16.68-9.46-25s-7.33-16.56-14-22.53a61,61,0,0,0-11.1-7.54,54.1,54.1,0,0,0-8.76-4.18c-8.91-3.08-18.84-1.9-27.67,1.38s-16.58,8.4-24.34,13.54a52,52,0,0,1,19,5.81l-4.61-7.6,15.4,12.59q-2.43-7-4.45-14.09c4.19,6.15,8.45,12.38,14.18,17.13a63.37,63.37,0,0,1-.92-19.43c2.5,9.64,5.73,19.2,11,27.64.44-7.81,1-15.88,4.51-22.84a192.34,192.34,0,0,0,8.39,29.1,63.42,63.42,0,0,1,.34-26.91c3.95,11.71,8.37,24.1,18.09,31.73a57.7,57.7,0,0,1-7.67-23.22C1070.8,515.22,1073.41,521.62,1076.63,527.69Z" transform="translate(-6.11 -293.58)"/><path class="a" d="M1037,454.22l9.66-15.63a37.69,37.69,0,0,0-12.73,10.1,86.45,86.45,0,0,1,5-16.1,57.65,57.65,0,0,0-13.41,22.56,77.31,77.31,0,0,0-.16-20.16q-2.73,10-5.48,20c-.9,3.28-1.83,6.63-3.76,9.42a72.1,72.1,0,0,0-.06-14.09,78,78,0,0,1-9.34,33.61l-1,1.81a75.82,75.82,0,0,1,21.65-7.64,38.62,38.62,0,0,0-5.45-.76,118.47,118.47,0,0,1,21.69-9.95,101.71,101.71,0,0,0-17-1.13c5.13-5.44,12.12-8.69,18.92-11.82A26,26,0,0,1,1037,454.22Z" transform="translate(-6.11 -293.58)"/><path class="a" d="M989.36,503.57a30.4,30.4,0,0,1,7,18.18l2.81-7.26q3.21,9.78,6.41,19.56c.93,2.86,1.91,5.79,3.8,8.13l1.78-13.14L1023.82,556a147.06,147.06,0,0,1,.22-16l9.51,26.29q.79-8.62,1.58-17.24a204.4,204.4,0,0,1,5.64,29.64c.47,4.14.91,8.53,3.44,11.83a90.84,90.84,0,0,1,2.41-30,147.38,147.38,0,0,0,11,34.29c-2.51-13.16-.4-27.1-4.63-39.81-4.71-14.14-16.6-24.68-29-32.94" transform="translate(-6.11 -293.58)"/><path class="a" d="M955.18,465.72c-4.92-4.75-10.33-9.28-16.83-11.4-4.94-1.6-10.23-1.71-15.42-1.59a64.12,64.12,0,0,0-10.54.93c-9.94,1.9-18.88,7.72-25.66,15.23S875.17,485.54,871.59,495c6.15-13.81,19.68-22.75,33.18-29.56l-11.91,17.44a67.24,67.24,0,0,1,28.44-17.45c-4.91,2-7.95,7.47-10.3,12.46a48.2,48.2,0,0,1,19.25-11.64q-3,8-6.49,15.9a113.77,113.77,0,0,1,14.62-14,36.59,36.59,0,0,1-7.9,18.59,85.34,85.34,0,0,1,22.44-9.87,41.42,41.42,0,0,1-8.15,12.55l14.33-5.17a23.66,23.66,0,0,1-7.64,10.29A93.63,93.63,0,0,0,967.63,489,38.49,38.49,0,0,1,959,499.3a39.67,39.67,0,0,1,23.4,1c.08-1.17,1.22-1.08-.26-3.49S965.05,475.25,955.18,465.72Z" transform="translate(-6.11 -293.58)"/><path class="a" d="M982.21,506.93A220.58,220.58,0,0,0,931,510.18c-4,.73-8.53,1.9-10.59,5.46a45.39,45.39,0,0,1,23.68-3.6,99.34,99.34,0,0,0-37.59,11.25,79.54,79.54,0,0,1,21.41-.36c-11.33,3.3-20.19,12.11-30.48,17.82a59.07,59.07,0,0,1,22.69-3.6A288.45,288.45,0,0,0,885,564.7c10.44-5.52,21.16-11.13,32.87-12.67A180.26,180.26,0,0,0,904,584.72q9.6-14.22,20.41-27.58a80.54,80.54,0,0,1-4.53,20.34Q930.47,557,939,535.58a90,90,0,0,1-.06,26.22A234.06,234.06,0,0,0,956.1,520a61.81,61.81,0,0,1-.17,25.73,101.5,101.5,0,0,0,14.43-27.1,23.15,23.15,0,0,1-.32,9.34,45,45,0,0,0,12.19-20.67Z" transform="translate(-6.11 -293.58)"/><path class="a" d="M1002.58,544.43c.3.74.6,1.47.88,2.21A11.07,11.07,0,0,0,1002.58,544.43Z" transform="translate(-6.11 -293.58)"/><path class="a" d="M1007.78,569a148.24,148.24,0,0,0-10.63-29.9,12.14,12.14,0,0,1,5.43,5.34,238.8,238.8,0,0,0-17.78-35.64s-3.35,8.28-4.56,11.15S970,537.82,965.4,552.22a51.28,51.28,0,0,1,13.86-17.51,147.39,147.39,0,0,0-14.66,47.14A72.1,72.1,0,0,1,975,563.12a197.7,197.7,0,0,0-4.55,44.06,50.85,50.85,0,0,1,9.87-23.62q2.17,16.34,4.36,32.66a55.11,55.11,0,0,1,4-19,196.67,196.67,0,0,1,6.45,23q1.2-10.19,1.47-20.43a37.81,37.81,0,0,1,5.69,10.9q-.3-13-.61-26.09a52,52,0,0,1,5.57,10.43A74,74,0,0,0,998,558.47,27.62,27.62,0,0,1,1007.78,569Z" transform="translate(-6.11 -293.58)"/><path class="a" d="M952.54,716.83c-9.71-51.22-4.42-102.51,6.94-153.39.91-4.05,2.45-9.43,1.83-13.54l-2.68-1.07c-9.13,15.1-14.49,32.19-18.31,49.41a317.43,317.43,0,0,0,12.56,178.87,3.93,3.93,0,0,0,1.37,2.09c1,.58,2.19.23,3.26-.13l12-4.11" transform="translate(-6.11 -293.58)"/><path class="a" d="M1225.15,381.15c2.06-4,5.31-7.2,8.68-10.14,12-10.41,26-18.06,40-25.62-6.65,10.36-13.86,21.24-25,26.52a77.27,77.27,0,0,0,22.2-12.43c-1.92,3.82-5,6.91-8.15,9.84a246.55,246.55,0,0,1-27.35,22.16c9.68-1.33,19.88-3.12,27.27-9.51a168.37,168.37,0,0,1-29.51,19.66c3.32,1.31,7.06.61,10.5-.35a75.45,75.45,0,0,0,16.44-6.81,135.49,135.49,0,0,1-21.35,15.88,32.93,32.93,0,0,0,17.18-5.18,124.48,124.48,0,0,1-24.39,16.37,11.11,11.11,0,0,0,9.55-.89q-16.26,17.66-30.72,36.86l-1.26,1.3c5.06-19.81,10.13-39.71,12.17-60.06C1222,392.74,1222.37,386.51,1225.15,381.15Z" transform="translate(-6.11 -293.58)"/><path class="a" d="M1215.89,393c.66-1,1.33-2,2.06-2.92Z" transform="translate(-6.11 -293.58)"/><path class="a" d="M1186.73,387a51.52,51.52,0,0,0,5.27,10.78c-1-12.27-1.79-25.27,3.81-36.22q0,7.19-.07,14.39A121.53,121.53,0,0,1,1220.59,342a53.67,53.67,0,0,0-11.85,34.42c4.82-7.94,11-16,20-18.38a99.84,99.84,0,0,0-21.65,35.13,38.87,38.87,0,0,1,11.26-13.31,77.8,77.8,0,0,0-13.42,28.71l11-15.6c-8,12.16-10.84,27.15-13.44,41.59a84.13,84.13,0,0,1,8-14A76,76,0,0,0,1205,457.2l-1.65-.79a60.4,60.4,0,0,1-16.58-40.4,55.35,55.35,0,0,0,8.8,12.45,128.45,128.45,0,0,1-8.93-30.71C1186.09,394.17,1185.68,390.44,1186.73,387Z" transform="translate(-6.11 -293.58)"/><path class="a" d="M1099.09,489.75c-4.36,7.07-9.58,13.82-16.55,18.33,5.3-9.37,8.84-19.61,13.32-29.4s10.09-19.39,18.53-26.08a73.71,73.71,0,0,1,13.95-8.23,65.42,65.42,0,0,1,10.88-4.37c11-3,22.85-.84,33.23,3.79s19.33,11.38,28.28,18.17a62.76,62.76,0,0,0-23.33,5.55q3.07-4.39,6.14-8.81l-19.52,14q3.45-8.22,6.44-16.64c-5.52,7.09-11.13,14.28-18.4,19.56a76.89,76.89,0,0,0,2.61-23.34c-3.76,11.42-8.38,22.7-15.4,32.46.07-9.44.08-19.21-3.68-27.87a232.5,232.5,0,0,1-12.34,34.42,76.61,76.61,0,0,0,1.66-32.45c-5.66,13.81-11.93,28.4-24.23,36.84a69.56,69.56,0,0,0,11-27.38C1107.08,475.18,1103.45,482.69,1099.09,489.75Z" transform="translate(-6.11 -293.58)"/><path class="a" d="M1152.46,404.27,1142,384.7a45.31,45.31,0,0,1,14.57,13.15,105,105,0,0,0-4.76-19.78,69.67,69.67,0,0,1,14.42,28.21A93.3,93.3,0,0,1,1168,382l5.07,24.56c.83,4,1.7,8.13,3.82,11.64a87,87,0,0,1,1.15-17,94.23,94.23,0,0,0,8.66,41.22l1.12,2.26a91.11,91.11,0,0,0-25.5-10.86,47.64,47.64,0,0,1,6.64-.5,143.36,143.36,0,0,0-25.39-13.65,121.81,121.81,0,0,1,20.57-.06c-5.77-6.95-13.94-11.4-21.89-15.69A31.37,31.37,0,0,0,1152.46,404.27Z" transform="translate(-6.11 -293.58)"/><path class="a" d="M1206.09,467.39a36.66,36.66,0,0,0-9.79,21.37c-.94-3-1.89-6-2.83-9q-4.6,11.54-9.22,23.07c-1.34,3.38-2.74,6.83-5.2,9.51l-1.14-16-17.35,31.46a174.8,174.8,0,0,0,1-19.28L1148,539.53q-.29-10.44-.58-20.89a245.09,245.09,0,0,0-9.06,35.28c-.89,5-1.76,10.21-5.06,14a109.7,109.7,0,0,0-.61-36.29,178,178,0,0,1-15.87,40.47c4-15.67,2.55-32.62,8.62-47.61,6.76-16.69,21.9-28.47,37.49-37.47" transform="translate(-6.11 -293.58)"/><path class="a" d="M1250.17,424.4c6.29-5.34,13.16-10.39,21.16-12.44,6.08-1.55,12.46-1.28,18.7-.74a76.78,76.78,0,0,1,12.63,1.94c11.83,3,22.15,10.74,29.75,20.31s12.65,20.95,16.23,32.63c-6.34-17.1-22-28.91-37.7-38.16l13,21.93A81.19,81.19,0,0,0,1291,426.66c5.78,2.75,9,9.62,11.47,15.8a58.24,58.24,0,0,0-22.31-15.5q3,9.92,6.6,19.66a137.31,137.31,0,0,0-16.53-18,44.06,44.06,0,0,0,8.08,23A103.3,103.3,0,0,0,1252.05,438a49.75,49.75,0,0,0,8.85,15.74L1244,446.46a28.55,28.55,0,0,0,8.42,13,113,113,0,0,1-19-7.95,46.08,46.08,0,0,0,9.59,13.07,48,48,0,0,0-28.27-.62c0-1.41-1.39-1.39.59-4.18S1237.55,435.13,1250.17,424.4Z" transform="translate(-6.11 -293.58)"/><path class="a" d="M1214.45,472a266.72,266.72,0,0,1,61.42,7.84c4.81,1.19,10.13,2.95,12.33,7.39a54.88,54.88,0,0,0-28.25-6.15,119.92,119.92,0,0,1,44.42,16.43,96.07,96.07,0,0,0-25.76-2.06c13.4,4.84,23.4,16.14,35.36,23.8a71.17,71.17,0,0,0-27.06-6.07A347.36,347.36,0,0,1,1327.12,549c-12.15-7.45-24.64-15-38.63-17.79a217.87,217.87,0,0,1,14.23,40.46q-10.48-17.88-22.48-34.79a96.93,96.93,0,0,0,3.9,24.85q-11.19-25.47-19.83-52a108.85,108.85,0,0,0-1.94,31.6,282.62,282.62,0,0,1-17.46-51.72,74.42,74.42,0,0,0-1.77,31,122.47,122.47,0,0,1-15.3-33.75,27.84,27.84,0,0,0-.33,11.28c-6.67-7-11.09-16.39-13.11-25.84Z" transform="translate(-6.11 -293.58)"/><path class="a" d="M1187,515.61c-.41.86-.83,1.72-1.23,2.58A13.26,13.26,0,0,1,1187,515.61Z" transform="translate(-6.11 -293.58)"/><path class="a" d="M1178.88,544.79a179.73,179.73,0,0,1,15.1-35.2,14.72,14.72,0,0,0-7,6A288.33,288.33,0,0,1,1211.19,474s3.39,10.24,4.64,13.79,11,22.33,15.4,40a61.83,61.83,0,0,0-15.36-22.16,177.81,177.81,0,0,1,14.05,57.93,86.23,86.23,0,0,0-11.11-23.37,237.67,237.67,0,0,1,2.11,53.43,61.45,61.45,0,0,0-10.09-29.21q-3.87,19.51-7.75,39a66.49,66.49,0,0,0-3.43-23.2,239.77,239.77,0,0,0-9.53,27.18q-.66-12.36-.2-24.73a45.78,45.78,0,0,0-7.69,12.7q1.37-15.69,2.74-31.39a62.71,62.71,0,0,0-7.52,12.14,89.55,89.55,0,0,1,14-43.31A33.46,33.46,0,0,0,1178.88,544.79Z" transform="translate(-6.11 -293.58)"/><path class="a" d="M1234.1,727.15c15.64-61,13.19-123.17,3.4-185.34-.78-4.95-2.23-11.55-1.17-16.45l3.32-1.09c9.84,18.89,15,39.9,18.27,61a383.27,383.27,0,0,1-28.84,214.54,4.69,4.69,0,0,1-1.82,2.41c-1.21.63-2.66.12-3.91-.4l-14.1-5.87" transform="translate(-6.11 -293.58)"/></svg>