<svg xmlns="http://www.w3.org/2000/svg" width="1366" height="694.41" viewBox="0 0 1366 694.41"><defs><style>.a{fill:#00dd93;}</style></defs><title>skyline</title><polygon class="a" points="0 380.85 51.66 380.85 73.29 370.03 73.29 259.5 112.93 279.93 112.93 389.26 144.17 389.26 144.17 324.38 165.79 324.38 165.79 452.93 197.03 452.93 197.03 318.37 215.05 318.37 215.05 210.25 259.5 210.25 259.5 259.5 324.38 258.3 324.38 290.74 383.25 290.74 383.25 337.6 400.07 337.6 400.07 356.82 416.89 356.82 416.89 15.62 440.92 0 492.58 0 510.6 13.21 510.6 299.15 525.01 299.15 525.01 326.78 537.03 326.78 537.03 291.94 588.69 291.94 588.69 389.26 606.71 388.06 606.71 203.04 621.13 201.84 621.13 141.77 682.4 142.97 682.4 296.75 695.62 296.75 695.62 343.6 723.25 342.4 723.25 187.42 804.94 187.42 804.94 413.28 820.56 413.28 820.56 242.68 862.61 242.68 862.61 176.61 891.44 177.81 891.44 46.85 979.15 49.26 979.15 225.87 993.56 225.87 993.56 288.34 1009.18 246.29 1023.6 284.73 1023.6 346 1038.02 344.8 1038.02 284.73 1058.44 252.3 1075.26 283.53 1075.26 305.16 1094.48 305.16 1110.1 330.39 1143.74 331.59 1143.74 373.64 1161.76 373.64 1161.76 403.67 1176.18 403.67 1176.18 378.44 1203.81 377.24 1203.81 406.08 1225.43 406.08 1225.43 315.97 1238.65 297.95 1257.87 300.35 1265.08 315.97 1265.08 380.85 1277.1 380.85 1277.1 277.52 1310.73 297.95 1310.73 365.23 1328.76 365.23 1328.76 382.05 1366 380.41 1366 694.41 0 694.41 0 380.85"/></svg>